# xmcd CD database file
# Copyright (C) 1993-1998 Ti Kan
#
# Track frame offsets:
#  150
#  15175
#  27700
#  40400
#  55450
#  69125
#  87075
#  99575
#  114350
#  124775
#  137900
#  152075
#  165850
#  177975
#  191275
#  204450
#  217800
#  231050
#
# Disc length: 3213 seconds
#
# Revision: 1
# Processed by: cddbd v1.4b41PL1 Copyright (c) Steve Scherf et al.
# Submitted via: CDWizzard Release:4.35
#
DISCID=e40c8b12
DTITLE=Various Artist - Feelin' The Blues-Diggen' The Rythem 3
DYEAR=1900
DGENRE=
TTITLE0=Mannish Boy
TTITLE1=Smokestack Lightnin'
TTITLE2=My Babe
TTITLE3=Let Your Conscience be your Guid
TTITLE4=I'm In the Mood
TTITLE5=I'm Gonna Move to the Outskirts of Town
TTITLE6=Ten Years Ago
TTITLE7=California Blues
TTITLE8=It Must've been the Devil
TTITLE9=I'm Satisfied
TTITLE10=Walkin' Blues
TTITLE11=I Don't Know
TTITLE12=The Things I Used To Do
TTITLE13=I'm A Man
TTITLE14=I'm Ready
TTITLE15=Mean Old World
TTITLE16=Ain't nobody's Business
TTITLE17=Sittin' on Top of the World
EXTD=
EXTT0=Muddy Waters
EXTT1=Howlin' Wolf
EXTT2=Little Walter
EXTT3=Sonny Boy Williamson
EXTT4=John Lee Hooker
EXTT5=Little Milton
EXTT6=Buddy Guy           
EXTT7=Albert King
EXTT8=Otis Span
EXTT9=Otis Rush
EXTT10=Willie Dixon
EXTT11=Willie Mabon
EXTT12=Chuck Berry
EXTT13=Bo Diddley
EXTT14=Muddy Waters
EXTT15=Little Walter
EXTT16=Jimmy Witherspoon
EXTT17=Howlin' Wolf
PLAYORDER=
